<mxfile host="app.diagrams.net" modified="2024-05-14T05:11:11.073Z" agent="Mozilla/5.0 (Windows NT 10.0; Win64; x64) AppleWebKit/537.36 (KHTML, like Gecko) Chrome/124.0.0.0 Safari/537.36" etag="Kwi7mmxX-G_lEY7tw7qz" version="24.4.0" type="github">
  <diagram name="Page-1" id="NfVHVe16_3ZXJLiVByDt">
    <mxGraphModel dx="880" dy="468" grid="1" gridSize="10" guides="1" tooltips="1" connect="1" arrows="1" fold="1" page="1" pageScale="1" pageWidth="827" pageHeight="1169" math="0" shadow="0">
      <root>
        <mxCell id="0" />
        <mxCell id="1" parent="0" />
        <mxCell id="g1CvBdNcYukEIJ930ufU-1" value="" style="ellipse;html=1;shape=startState;fillColor=#000000;strokeColor=#ff0000;" vertex="1" parent="1">
          <mxGeometry x="340" y="80" width="30" height="30" as="geometry" />
        </mxCell>
        <mxCell id="g1CvBdNcYukEIJ930ufU-2" value="" style="edgeStyle=orthogonalEdgeStyle;html=1;verticalAlign=bottom;endArrow=open;endSize=8;strokeColor=#ff0000;rounded=0;" edge="1" source="g1CvBdNcYukEIJ930ufU-1" parent="1">
          <mxGeometry relative="1" as="geometry">
            <mxPoint x="355" y="140" as="targetPoint" />
          </mxGeometry>
        </mxCell>
        <mxCell id="g1CvBdNcYukEIJ930ufU-3" value="" style="rounded=1;whiteSpace=wrap;html=1;" vertex="1" parent="1">
          <mxGeometry x="265" y="140" width="180" height="40" as="geometry" />
        </mxCell>
      </root>
    </mxGraphModel>
  </diagram>
</mxfile>
